<svg width="49" height="30" viewBox="0 0 49 30" fill="none" xmlns="http://www.w3.org/2000/svg">
<rect opacity="0.04" x="0.5" y="0.5" width="48" height="29" rx="1.5" stroke="#1D1D1B"/>
<path d="M8.49219 16.9307V15.5635H12.0059V16.9307H8.49219ZM17.8438 20H16.2373V13.5469C16.2373 12.7767 16.2555 12.166 16.292 11.7148C16.1872 11.8242 16.0573 11.945 15.9023 12.0771C15.752 12.2093 15.2415 12.6286 14.3711 13.335L13.5645 12.3164L16.5039 10.0059H17.8438V20ZM27.8994 15.0029C27.8994 16.7393 27.6191 18.029 27.0586 18.8721C26.5026 19.7152 25.6504 20.1367 24.502 20.1367C23.39 20.1367 22.5469 19.7015 21.9727 18.8311C21.3984 17.9606 21.1113 16.6846 21.1113 15.0029C21.1113 13.2393 21.3893 11.9404 21.9453 11.1064C22.5059 10.2679 23.3581 9.84863 24.502 9.84863C25.6185 9.84863 26.4639 10.2861 27.0381 11.1611C27.6123 12.0361 27.8994 13.3167 27.8994 15.0029ZM22.7383 15.0029C22.7383 16.3656 22.8773 17.3385 23.1553 17.9219C23.4378 18.5052 23.8867 18.7969 24.502 18.7969C25.1172 18.7969 25.5661 18.5007 25.8486 17.9082C26.1357 17.3158 26.2793 16.3473 26.2793 15.0029C26.2793 13.6631 26.1357 12.6947 25.8486 12.0977C25.5661 11.4961 25.1172 11.1953 24.502 11.1953C23.8867 11.1953 23.4378 11.4893 23.1553 12.0771C22.8773 12.665 22.7383 13.6403 22.7383 15.0029ZM30.415 13C30.415 13.679 30.4811 14.1849 30.6133 14.5176C30.7454 14.8503 30.9619 15.0166 31.2627 15.0166C31.8643 15.0166 32.165 14.3444 32.165 13C32.165 11.6556 31.8643 10.9834 31.2627 10.9834C30.9619 10.9834 30.7454 11.1497 30.6133 11.4824C30.4811 11.8151 30.415 12.321 30.415 13ZM33.4912 12.9863C33.4912 14.0345 33.3021 14.8229 32.9238 15.3516C32.5501 15.8757 31.9964 16.1377 31.2627 16.1377C30.57 16.1377 30.0322 15.8665 29.6494 15.3242C29.2712 14.7773 29.082 13.998 29.082 12.9863C29.082 10.9036 29.8089 9.8623 31.2627 9.8623C31.9782 9.8623 32.5273 10.1335 32.9102 10.6758C33.2975 11.2135 33.4912 11.9837 33.4912 12.9863ZM36.9229 16.9922C36.9229 17.6712 36.9889 18.1794 37.1211 18.5166C37.2578 18.8538 37.4766 19.0225 37.7773 19.0225C38.3743 19.0225 38.6729 18.3457 38.6729 16.9922C38.6729 15.6569 38.3743 14.9893 37.7773 14.9893C37.4766 14.9893 37.2578 15.1533 37.1211 15.4814C36.9889 15.8096 36.9229 16.3132 36.9229 16.9922ZM39.999 16.9922C39.999 18.0404 39.8099 18.8265 39.4316 19.3506C39.0534 19.8747 38.502 20.1367 37.7773 20.1367C37.0846 20.1367 36.5469 19.8678 36.1641 19.3301C35.7812 18.7878 35.5898 18.0085 35.5898 16.9922C35.5898 14.9095 36.319 13.8682 37.7773 13.8682C38.4792 13.8682 39.0238 14.137 39.4111 14.6748C39.8031 15.2126 39.999 15.985 39.999 16.9922ZM37.9688 10.0059L32.4248 20H31.0986L36.6426 10.0059H37.9688Z" fill="#E0001B"/>
</svg>
