<svg width="49" height="30" viewBox="0 0 49 30" fill="none" xmlns="http://www.w3.org/2000/svg">
<rect opacity="0.04" x="0.5" y="0.5" width="48" height="29" rx="1.5" stroke="#1D1D1B"/>
<path d="M8.49219 16.9307V15.5635H12.0059V16.9307H8.49219ZM19.9014 20H13.127V18.7832L15.7041 16.1924C16.4652 15.4131 16.9688 14.8617 17.2148 14.5381C17.4655 14.21 17.6478 13.9023 17.7617 13.6152C17.8757 13.3281 17.9326 13.0205 17.9326 12.6924C17.9326 12.2412 17.7959 11.8857 17.5225 11.626C17.2536 11.3662 16.8799 11.2363 16.4014 11.2363C16.0186 11.2363 15.6471 11.307 15.2871 11.4482C14.9316 11.5895 14.5192 11.8447 14.0498 12.2139L13.1816 11.1543C13.7376 10.6849 14.2777 10.3522 14.8018 10.1562C15.3258 9.96029 15.8841 9.8623 16.4766 9.8623C17.4062 9.8623 18.1514 10.1061 18.7119 10.5938C19.2725 11.0768 19.5527 11.7285 19.5527 12.5488C19.5527 13 19.4707 13.4284 19.3066 13.834C19.1471 14.2396 18.8988 14.6589 18.5615 15.0918C18.2288 15.5202 17.6729 16.1012 16.8936 16.835L15.1572 18.5166V18.585H19.9014V20ZM24.5156 13.7588C25.5228 13.7588 26.3203 14.0254 26.9082 14.5586C27.4961 15.0918 27.79 15.8187 27.79 16.7393C27.79 17.8057 27.4551 18.6396 26.7852 19.2412C26.1198 19.8382 25.1719 20.1367 23.9414 20.1367C22.8249 20.1367 21.9476 19.9567 21.3096 19.5967V18.1406C21.6787 18.3503 22.1025 18.512 22.5811 18.626C23.0596 18.7399 23.5039 18.7969 23.9141 18.7969C24.6387 18.7969 25.1901 18.6351 25.5684 18.3115C25.9466 17.988 26.1357 17.514 26.1357 16.8896C26.1357 15.6956 25.3747 15.0986 23.8525 15.0986C23.6383 15.0986 23.374 15.1214 23.0596 15.167C22.7451 15.208 22.4694 15.2559 22.2324 15.3105L21.5146 14.8867L21.8975 10.0059H27.0928V11.4346H23.3125L23.0869 13.9092C23.2464 13.8818 23.4401 13.8499 23.668 13.8135C23.9004 13.777 24.1829 13.7588 24.5156 13.7588ZM30.415 13C30.415 13.679 30.4811 14.1849 30.6133 14.5176C30.7454 14.8503 30.9619 15.0166 31.2627 15.0166C31.8643 15.0166 32.165 14.3444 32.165 13C32.165 11.6556 31.8643 10.9834 31.2627 10.9834C30.9619 10.9834 30.7454 11.1497 30.6133 11.4824C30.4811 11.8151 30.415 12.321 30.415 13ZM33.4912 12.9863C33.4912 14.0345 33.3021 14.8229 32.9238 15.3516C32.5501 15.8757 31.9964 16.1377 31.2627 16.1377C30.57 16.1377 30.0322 15.8665 29.6494 15.3242C29.2712 14.7773 29.082 13.998 29.082 12.9863C29.082 10.9036 29.8089 9.8623 31.2627 9.8623C31.9782 9.8623 32.5273 10.1335 32.9102 10.6758C33.2975 11.2135 33.4912 11.9837 33.4912 12.9863ZM36.9229 16.9922C36.9229 17.6712 36.9889 18.1794 37.1211 18.5166C37.2578 18.8538 37.4766 19.0225 37.7773 19.0225C38.3743 19.0225 38.6729 18.3457 38.6729 16.9922C38.6729 15.6569 38.3743 14.9893 37.7773 14.9893C37.4766 14.9893 37.2578 15.1533 37.1211 15.4814C36.9889 15.8096 36.9229 16.3132 36.9229 16.9922ZM39.999 16.9922C39.999 18.0404 39.8099 18.8265 39.4316 19.3506C39.0534 19.8747 38.502 20.1367 37.7773 20.1367C37.0846 20.1367 36.5469 19.8678 36.1641 19.3301C35.7812 18.7878 35.5898 18.0085 35.5898 16.9922C35.5898 14.9095 36.319 13.8682 37.7773 13.8682C38.4792 13.8682 39.0238 14.137 39.4111 14.6748C39.8031 15.2126 39.999 15.985 39.999 16.9922ZM37.9688 10.0059L32.4248 20H31.0986L36.6426 10.0059H37.9688Z" fill="#E0001B"/>
</svg>
